<svg viewBox="0 0 2528 2528" xmlns="http://www.w3.org/2000/svg" role="img" aria-label="Liberty Compass">
  <rect width="2528" height="2528" rx="480" fill="#2D0641" />
  <g transform="translate(190,1985) scale(0.085,-0.085)" fill="#DBF5FF" stroke="none">
    <path d="M12621 14238 c-17 -79 -42 -201 -56 -273 -13 -71 -37 -193 -54 -270 -68 -322 -236 -1163 -361 -1805 -34 -173 -88 -450 -121 -615 -33 -165 -80 -408 -105 -540 -25 -132 -64 -332 -88 -445 -82 -385 -107 -284 190 -778 143 -238 263 -430 269 -429 5 2 33 42 63 90 l53 86 -215 358 -216 358 30 155 c16 85 72 369 124 630 100 498 421 2119 480 2420 34 175 34 175 35 -1786 l1 -1961 -193 -304 c-448 -705 -414 -641 -375 -706 19 -32 88 -143 152 -247 88 -142 115 -194 109 -207 -8 -17 -121 -203 -429 -705 l-151 -246 34 -177 c18 -97 56 -300 84 -451 107 -588 141 -772 229 -1245 51 -269 111 -598 135 -730 58 -324 170 -908 356 -1862 29 -150 56 -273 59 -273 3 0 31 143 63 318 31 174 95 517 142 762 80 422 112 590 241 1295 30 165 82 442 114 615 33 173 78 419 100 545 70 393 190 1047 211 1147 12 57 12 57 -137 300 -81 134 -201 330 -265 437 -65 106 -120 195 -123 198 -6 7 -116 -163 -116 -179 0 -14 74 -140 291 -496 l149 -243 -30 -147 c-27 -141 -73 -387 -235 -1262 -40 -217 -98 -528 -128 -690 -62 -329 -95 -507 -197 -1075 -39 -214 -75 -394 -80 -399 -7 -7 -10 742 -10 2060 l0 2069 78 130 c44 72 148 240 232 375 84 135 179 289 212 342 l58 96 -145 237 -146 236 237 392 c130 216 245 403 254 417 10 14 40 62 67 107 l50 81 -119 592 c-65 325 -151 760 -192 968 -40 207 -162 818 -271 1357 -108 539 -199 991 -202 1005 -38 204 -97 488 -102 498 -4 8 -21 -48 -40 -130z" />
    <path d="M7241 10688 c18 -33 102 -112 174 -163 127 -91 286 -158 505 -214 114 -29 33 -27 -133 4 -250 46 -457 129 -618 249 -84 62 -84 62 -334 55 -508 -15 -1298 -40 -1580 -50 -617 -21 -789 -22 -1010 -5 -115 9 -255 24 -310 32 -209 31 -238 34 -242 30 -3 -3 10 -32 27 -65 39 -74 159 -191 264 -260 161 -105 307 -162 531 -208 121 -25 149 -27 395 -27 277 -1 766 14 1250 39 386 20 1250 44 1780 49 463 5 460 0 -15 -28 -148 -9 -466 -30 -705 -46 -239 -16 -520 -34 -625 -40 -170 -9 -399 -24 -1185 -76 -345 -22 -840 -71 -840 -83 0 -12 16 -28 70 -72 129 -104 339 -195 578 -250 112 -26 421 -37 583 -20 61 7 231 32 378 57 146 25 388 62 536 84 149 22 347 50 440 64 398 58 1503 171 1610 164 41 -2 27 -6 -80 -21 -530 -75 -1801 -308 -2512 -461 -300 -65 -703 -166 -703 -177 0 -14 165 -118 245 -155 105 -48 273 -90 424 -104 227 -22 420 7 966 145 782 199 973 246 1200 298 455 105 1078 221 820 153 -428 -113 -1663 -514 -2175 -707 -393 -147 -380 -142 -380 -150 0 -17 120 -50 216 -61 182 -19 489 14 769 81 158 39 452 131 590 186 181 72 517 202 726 280 205 77 614 208 632 202 5 -1 -102 -49 -239 -106 -518 -215 -742 -316 -1459 -660 -220 -106 -418 -200 -440 -210 -40 -18 -40 -18 -3 -34 146 -62 409 -95 604 -78 228 20 386 61 591 152 177 78 325 159 1008 554 274 158 124 51 -607 -436 -235 -156 -481 -319 -547 -362 -67 -42 -121 -81 -121 -86 0 -16 34 -23 134 -29 59 -3 127 0 170 8 85 15 283 77 421 132 189 75 267 122 810 490 237 160 268 178 195 111 -255 -232 -668 -575 -937 -776 -77 -58 -144 -110 -147 -115 -8 -13 55 -37 129 -51 87 -16 293 -14 382 5 91 19 205 62 287 111 116 67 206 143 416 355 192 192 206 205 149 129 -57 -76 -142 -175 -471 -554 -113 -131 -113 -130 37 -130 175 0 384 80 508 194 72 65 171 184 298 354 41 55 80 107 87 115 27 33 -11 -48 -103 -220 -52 -96 -108 -207 -125 -247 -34 -80 -64 -198 -56 -219 4 -10 23 -14 59 -14 90 0 181 52 302 174 95 96 104 108 168 240 38 76 70 136 73 134 6 -7 -33 -150 -62 -226 -52 -136 -94 -267 -94 -295 0 -29 1 -29 48 -25 70 7 154 49 218 110 46 43 68 77 121 183 70 143 68 147 37 -55 -15 -101 -19 -316 -6 -324 4 -2 30 9 57 26 28 17 194 117 370 221 176 104 326 194 332 201 10 9 -7 44 -77 160 -50 82 -90 154 -90 160 1 6 41 74 89 151 49 77 87 143 85 146 -2 4 -79 48 -171 100 -453 251 -699 419 -1114 761 -371 305 -428 351 -570 456 -682 507 -999 626 -1614 608 -121 -4 -366 -14 -545 -22 -337 -17 -488 -14 -675 11 -60 8 -127 15 -148 15 -36 0 -37 -1 -26 -22z" />
    <path d="M16306 10700 c-260 -30 -540 -130 -787 -282 -256 -157 -512 -349 -980 -733 -459 -377 -691 -539 -1122 -780 -108 -60 -206 -117 -217 -125 -20 -15 -19 -18 68 -160 l89 -144 -90 -148 c-53 -88 -87 -152 -81 -157 5 -5 130 -80 278 -166 148 -87 321 -189 383 -227 63 -39 117 -67 121 -63 13 13 5 269 -11 360 -28 148 -22 150 42 20 72 -147 127 -210 222 -255 37 -17 90 -33 119 -37 52 -6 52 -6 45 38 -4 24 -33 116 -65 204 -66 181 -93 270 -88 286 2 6 32 -45 66 -113 125 -247 300 -402 469 -416 63 -5 63 -5 63 24 -1 87 -43 195 -165 424 -92 172 -139 271 -113 240 7 -9 61 -79 120 -155 257 -338 351 -413 595 -476 80 -20 265 -27 292 -10 10 6 -25 52 -139 182 -185 211 -437 511 -469 559 -13 19 14 -3 59 -50 310 -319 364 -371 446 -429 115 -82 266 -155 379 -182 79 -19 110 -21 250 -16 147 4 178 9 258 39 27 10 27 11 10 31 -10 11 -79 65 -153 120 -74 56 -189 144 -255 198 -163 131 -663 554 -705 597 -40 40 181 -101 420 -269 178 -125 419 -273 530 -326 114 -55 383 -145 500 -169 119 -24 327 -11 317 20 -2 6 -52 43 -111 81 -429 280 -1225 815 -1291 870 -20 16 -19 16 3 5 13 -6 121 -69 240 -139 292 -172 685 -389 835 -461 374 -181 777 -231 1130 -141 135 35 173 49 161 60 -5 5 -41 20 -81 35 -39 15 -149 65 -245 112 -279 138 -778 374 -983 467 -202 90 -263 116 -580 248 -213 88 -333 142 -300 135 41 -9 394 -120 510 -161 130 -46 710 -267 815 -311 177 -73 514 -176 727 -223 234 -51 352 -65 548 -65 159 0 190 2 263 23 45 13 85 27 88 32 8 14 -15 23 -566 226 -350 129 -1395 468 -1845 598 -121 36 -209 64 -195 65 14 0 167 -29 340 -64 522 -107 724 -154 1480 -346 811 -206 950 -231 1186 -210 212 19 357 56 504 130 71 35 190 116 190 129 0 13 -411 115 -746 186 -879 186 -1904 374 -2469 452 -350 49 223 9 895 -63 444 -46 897 -110 1535 -215 198 -32 403 -63 455 -69 142 -15 401 -12 505 5 192 31 414 107 548 186 83 49 192 139 180 149 -10 9 -135 27 -283 40 -63 6 -153 15 -200 20 -47 5 -159 14 -250 20 -91 6 -235 15 -320 20 -85 6 -290 19 -455 30 -165 11 -388 24 -495 30 -107 6 -429 26 -715 45 -286 19 -610 39 -720 46 -393 22 -376 28 70 23 503 -5 1451 -29 1725 -44 197 -11 861 -36 1225 -46 233 -7 327 0 510 37 259 53 503 177 661 335 68 67 138 169 128 185 -2 4 -19 6 -37 3 -17 -2 -79 -11 -137 -19 -180 -26 -558 -55 -726 -55 -88 0 -264 5 -390 10 -126 6 -472 17 -769 25 -769 21 -1189 34 -1270 39 -70 4 -70 4 -155 -60 -166 -125 -386 -211 -646 -253 -175 -28 -201 -25 -74 9 226 61 367 124 504 227 86 64 167 154 146 161 -6 2 -79 -4 -163 -14 -172 -21 -500 -23 -747 -5 -202 15 -749 22 -844 11z" />
  </g>
</svg>
